<svg width="24" height="24" viewBox="0 0 24 24" fill="none" xmlns="http://www.w3.org/2000/svg">
<g id="mingcute:settings-3-fill" clip-path="url(#clip0_2276_28747)">
<g id="Group">
<path id="Vector" d="M9.66999 3.21057L9.67 3.21056C9.53672 3.11309 9.3816 3.04975 9.21819 3.02607C9.05535 3.00248 8.88922 3.01899 8.73423 3.07415C7.70347 3.452 6.74609 4.00584 5.90469 4.71102C5.77955 4.81756 5.6823 4.95303 5.62138 5.10568C5.56029 5.25876 5.53759 5.42447 5.55526 5.58835L5.5557 5.5924L5.55568 5.59241C5.63965 6.43549 5.49214 7.26996 5.07098 7.99826C4.65084 8.72755 4.00097 9.27267 3.2286 9.6208L3.22565 9.62213L3.22564 9.62212C3.07466 9.689 2.94235 9.79184 2.8403 9.92166C2.73856 10.0511 2.66996 10.2034 2.64046 10.3653C2.45307 11.4463 2.45318 12.5515 2.64078 13.6325L2.64081 13.6326C2.7015 13.9831 2.94225 14.2462 3.22889 14.3763C4.00202 14.7238 4.65131 15.2702 5.07198 15.9977L5.07246 15.9985C5.49203 16.7272 5.63967 17.5602 5.55568 18.4035L9.66999 3.21057ZM9.66999 3.21057L9.67334 3.21298M9.66999 3.21057L9.67334 3.21298M9.67334 3.21298C10.3618 3.70775 11.159 3.99796 12.0001 3.99796C12.8417 3.99796 13.6386 3.70648 14.3272 3.21352L14.3272 3.21354L14.3312 3.21064C14.4644 3.11328 14.6194 3.05 14.7827 3.02633C14.9453 3.00274 15.1113 3.01918 15.2662 3.0742M9.67334 3.21298L14.0361 2.80696C14.2352 2.66146 14.4669 2.56689 14.7109 2.5315C14.955 2.49612 15.2039 2.521 15.4361 2.60396M20.9771 14.832C21.3911 14.644 21.7591 14.255 21.8521 13.718C22.0496 12.5798 22.0496 11.4161 21.8521 10.278M20.9771 14.832L20.7717 14.3761C20.7715 14.3762 20.7713 14.3763 20.7711 14.3764M20.9771 14.832L20.7704 14.3767C20.7707 14.3766 20.7709 14.3765 20.7711 14.3764M20.9771 14.832C20.2871 15.143 19.7231 15.621 19.3621 16.248M20.7711 14.3764C21.0575 14.2461 21.2989 13.9826 21.3595 13.6326L21.3595 13.6325C21.5471 12.5515 21.5472 11.4463 21.3598 10.3652M20.7711 14.3764C19.9993 14.7244 19.3494 15.2684 18.9291 15.9979M21.3598 10.3652C21.3599 10.3658 21.36 10.3663 21.3601 10.3668L21.8521 10.278M21.3598 10.3652C21.3597 10.3646 21.3596 10.364 21.3595 10.3634L21.8521 10.278M21.3598 10.3652C21.3303 10.2033 21.2617 10.0511 21.16 9.92166C21.0579 9.79184 20.9256 9.689 20.7746 9.62212L20.7717 9.62081C19.9991 9.27256 19.3493 8.72734 18.9283 7.99826M21.8521 10.278C21.8083 10.0351 21.7056 9.80666 21.5531 9.61264C21.4005 9.41862 21.2028 9.26491 20.9771 9.16496C20.2871 8.85396 19.7231 8.37496 19.3611 7.74796M18.9283 7.99826L19.3611 7.74796M18.9283 7.99826C18.9282 7.99816 18.9282 7.99806 18.9281 7.99796L19.3611 7.74796M18.9283 7.99826C18.5069 7.26957 18.3607 6.43499 18.4446 5.59241L18.445 5.58852C18.4626 5.4246 18.4399 5.25885 18.3788 5.10573C18.3179 4.9531 18.2207 4.81762 18.0956 4.71103M19.3611 7.74796C18.9991 7.12196 18.8671 6.39496 18.9421 5.64196C18.9685 5.39697 18.9345 5.14925 18.8432 4.9204C18.7518 4.69155 18.6059 4.4885 18.4181 4.32896M18.0956 4.71103C18.096 4.71139 18.0965 4.71175 18.0969 4.71211L18.4181 4.32896M18.0956 4.71103C18.0952 4.71069 18.0948 4.71035 18.0944 4.71L18.4181 4.32896M18.0956 4.71103C17.2542 4.00587 16.2969 3.45205 15.2662 3.0742M18.4181 4.32896C17.5315 3.58562 16.5225 3.00194 15.4361 2.60396M15.4361 2.60396L15.2679 3.07481C15.2673 3.07461 15.2668 3.0744 15.2662 3.0742M15.4361 2.60396L15.2642 3.07345C15.2648 3.0737 15.2655 3.07395 15.2662 3.0742M18.9291 15.9979C18.9293 15.9977 18.9294 15.9974 18.9296 15.9971L19.3621 16.248M18.9291 15.9979C18.5068 16.7267 18.3607 17.5612 18.4446 18.4035L18.4447 18.4045C18.4764 18.7164 18.3697 19.0555 18.0972 19.2835L18.0969 19.2838C17.2547 19.9899 16.2963 20.5444 15.2643 20.9224M18.9291 15.9979C18.929 15.9981 18.9289 15.9983 18.9288 15.9985L19.3621 16.248M19.3621 16.248C18.9991 16.874 18.8671 17.601 18.9421 18.354C18.9881 18.807 18.8351 19.318 18.4181 19.667C17.5315 20.4103 16.5225 20.994 15.4361 21.392M15.2643 20.9224L15.4361 21.392M15.2643 20.9224C14.9311 21.0444 14.5829 20.967 14.327 20.783L14.3269 20.7829C13.6386 20.2882 12.8424 19.998 12.0001 19.998C11.1581 19.998 10.3608 20.2881 9.67234 20.7829L9.67233 20.7829L9.66896 20.7854C9.53583 20.8828 9.38087 20.9461 9.21764 20.9697C9.05499 20.9933 8.88905 20.9768 8.73421 20.9218M15.2643 20.9224C15.2643 20.9224 15.2642 20.9225 15.2642 20.9225L15.4361 21.392M15.4361 21.392C14.9251 21.579 14.4051 21.455 14.0351 21.189C13.4201 20.747 12.7241 20.498 12.0001 20.498C11.2761 20.498 10.5791 20.747 9.96414 21.189C9.7651 21.3345 9.53343 21.4292 9.28939 21.4646C9.04534 21.4999 8.79634 21.475 8.56414 21.392M8.73421 20.9218C8.73485 20.922 8.73549 20.9222 8.73612 20.9225L8.56414 21.392M8.73421 20.9218C7.70292 20.5437 6.74509 19.9895 5.90339 19.2838L5.90305 19.2835C5.63123 19.056 5.52457 18.7161 5.55568 18.4035L5.58214 19.667C6.46874 20.4103 7.47774 20.994 8.56414 21.392M8.73421 20.9218C8.73366 20.9216 8.7331 20.9214 8.73254 20.9212L8.56414 21.392M9.52527 9.52309C8.86889 10.1795 8.50014 11.0697 8.50014 11.998C8.50014 12.9262 8.86889 13.8165 9.52527 14.4728C10.1816 15.1292 11.0719 15.498 12.0001 15.498C12.9284 15.498 13.8186 15.1292 14.475 14.4728C15.1314 13.8165 15.5001 12.9262 15.5001 11.998C15.5001 11.0697 15.1314 10.1795 14.475 9.52309C13.8186 8.86671 12.9284 8.49796 12.0001 8.49796C11.0719 8.49796 10.1816 8.86671 9.52527 9.52309Z" stroke="#000048"/>
</g>
</g>
<defs>
<clipPath id="clip0_2276_28747">
<rect width="24" height="24" fill="white"/>
</clipPath>
</defs>
</svg>
